<?xml version="1.0" encoding="UTF-8"?>
<svg id="Layer_2" data-name="Layer 2" xmlns="http://www.w3.org/2000/svg" xmlns:xlink="http://www.w3.org/1999/xlink" viewBox="0 0 1302.96 665.55">
  <defs>
    <style>
      .cls-1, .cls-2 {
        fill-rule: evenodd;
      }

      .cls-1, .cls-3 {
        fill: #140958;
      }

      .cls-4 {
        letter-spacing: .04em;
      }

      .cls-2 {
        fill: url(#GradientFill_1);
      }

      .cls-3 {
        font-family: NuberNext-BlackCondensed, NuberNext;
        font-size: 276.43px;
        font-weight: 800;
      }

      .cls-5 {
        fill: #fefefe;
      }

      .cls-6 {
        letter-spacing: .04em;
      }
    </style>
    <linearGradient id="GradientFill_1" data-name="GradientFill 1" x1="63.95" y1="332.78" x2="570.57" y2="332.78" gradientUnits="userSpaceOnUse">
      <stop offset="0" stop-color="#f48120"/>
      <stop offset=".27" stop-color="#f48120"/>
      <stop offset="1" stop-color="#fff100"/>
    </linearGradient>
  </defs>
  <g id="Layer_1-2" data-name="Layer 1">
    <g>
      <path class="cls-5" d="M609.47,158.75h640.54c29.22,0,52.95,23.73,52.95,52.95v242.14c0,29.22-23.73,52.95-52.95,52.95h-640.54V158.75h0Z"/>
      <ellipse class="cls-5" cx="345.37" cy="332.78" rx="345.37" ry="332.78"/>
      <g>
        <g>
          <path class="cls-2" d="M498.89,446.5l-97.75,169.6c20.07-3.67,39.71-9.57,58.79-17.82,33.98-14.7,64.61-34.9,91.02-60.84l19.62-19.27-71.68-71.68h0ZM345.35,145.84c-51.63,0-96.77,18.79-133.18,55.41-36.3,36.52-54.97,81.51-54.97,133.01s17.22,92.46,50.72,128.27c19.78,21.16,42.64,36.94,68.13,47.01l-48.6,84.81c-28.92-13.72-55.61-32.78-79.91-57.09-55.4-55.39-83.59-123.17-83.59-201.52s28.31-146.17,83.52-201.78c115.18-116.05,290.24-109.39,403.07.3l19.81,19.26-71.35,71.35c-6.04-8.26-12.84-16.18-20.4-23.73-36.55-36.49-81.6-55.3-133.25-55.3Z"/>
          <path class="cls-1" d="M390.95,379.51c-12.51,12.51-27.72,18.86-45.47,18.9-17.85-.03-32.97-6.39-45.47-18.9-12.54-12.54-18.99-27.71-18.99-45.52s6.18-32.8,18.72-45.51c12.53-12.81,27.7-19.18,45.6-19.18s33.07,6.36,45.61,19.18c12.54,12.71,18.89,27.89,18.89,45.51s-6.35,32.98-18.89,45.52h0ZM474.54,411.68c1.82-4,3.45-6.91,4.55-8.73,11.18-21.62,16.71-44.51,16.71-68.68,0-41.34-14.61-76.68-44.15-106.12-29.52-29.53-64.96-44.15-106.29-44.15s-76.77,14.63-106.11,44.15c-29.26,29.44-43.88,64.78-43.88,106.12s13.54,73.41,40.43,102.21c26.89,28.71,59.96,44.7,98.84,47.6l-74.03,129.2,98.3-.28,111.12-192.79c1.09-1.55,2.63-4.54,4.54-8.54Z"/>
        </g>
        <text class="cls-3" transform="translate(546.26 434.34)"><tspan class="cls-6" x="0" y="0">P</tspan><tspan class="cls-4" x="155.63" y="0">HISH</tspan></text>
      </g>
    </g>
  </g>
</svg>